<?xml version="1.0" standalone="no"?>
<!DOCTYPE svg PUBLIC "-//W3C//DTD SVG 20010904//EN"
 "http://www.w3.org/TR/2001/REC-SVG-20010904/DTD/svg10.dtd">
<svg version="1.0" xmlns="http://www.w3.org/2000/svg"
 width="512.000000pt" height="512.000000pt" viewBox="0 0 512.000000 512.000000"
 preserveAspectRatio="xMidYMid meet">
<metadata>
Created by potrace 1.11, written by Peter Selinger 2001-2013
</metadata>
<g transform="translate(0.000000,512.000000) scale(0.100000,-0.100000)"
fill="#000000" stroke="none">
<path d="M0 2560 l0 -2560 2560 0 2560 0 0 2560 0 2560 -2560 0 -2560 0 0
-2560z m2702 1545 c228 -22 387 -60 513 -123 204 -102 347 -282 394 -495 50
-224 28 -451 -61 -637 -33 -69 -57 -100 -127 -170 -94 -93 -161 -134 -301
-185 -75 -27 -85 -33 -88 -56 -2 -21 4 -31 31 -48 86 -53 182 -182 274 -366
123 -245 493 -1031 493 -1046 0 -9 -9 -24 -19 -33 -17 -15 -47 -17 -320 -14
l-301 3 -24 25 c-15 15 -112 225 -236 510 -116 267 -226 512 -245 545 -86 154
-228 235 -413 235 -65 0 -90 -4 -104 -17 -17 -15 -18 -48 -18 -624 0 -424 -3
-615 -11 -632 -19 -43 -46 -47 -289 -47 -243 0 -270 4 -289 47 -16 34 -16
3062 0 3097 6 13 21 29 33 34 35 18 921 15 1108 -3z"/>
<path d="M2167 3603 c-16 -18 -17 -54 -17 -435 0 -398 1 -416 19 -432 18 -16
39 -18 223 -14 186 4 210 7 283 31 225 74 335 216 335 432 0 215 -87 334 -293
401 -77 26 -96 28 -307 32 -213 4 -226 3 -243 -15z"/>
</g>
</svg>
